<?xml version="1.0" standalone="no"?>
<!DOCTYPE svg PUBLIC "-//W3C//DTD SVG 20010904//EN"
 "http://www.w3.org/TR/2001/REC-SVG-20010904/DTD/svg10.dtd">
<svg version="1.0" xmlns="http://www.w3.org/2000/svg"
 width="180.000000pt" height="180.000000pt" viewBox="0 0 180.000000 180.000000"
 preserveAspectRatio="xMidYMid meet">
<metadata>
Created by potrace 1.11, written by Peter Selinger 2001-2013
</metadata>
<g transform="translate(0.000000,180.000000) scale(0.100000,-0.100000)"
fill="#000000" stroke="none">
<path d="M0 900 l0 -900 45 0 45 0 0 53 c0 80 17 123 73 189 44 52 69 70 167
121 63 32 153 70 199 83 47 13 89 28 95 34 5 5 14 10 18 10 18 0 6 -31 -32
-81 -22 -30 -40 -58 -40 -64 -1 -5 -3 -27 -6 -48 -3 -22 -3 -55 1 -74 5 -31 9
-34 30 -29 24 6 24 6 27 -91 3 -86 5 -98 21 -101 16 -3 18 0 12 20 l-7 23 16
-22 c16 -21 21 -22 222 -20 l206 2 49 95 c116 227 189 411 189 478 0 19 4 32
9 30 21 -8 169 -196 172 -218 3 -18 22 -37 69 -67 73 -48 105 -71 168 -125 24
-21 45 -38 48 -38 2 0 4 369 4 820 l0 820 -900 0 -900 0 0 -900z m797 544 c-3
-3 -12 -4 -19 -1 -8 3 -5 6 6 6 11 1 17 -2 13 -5z m130 -20 c-3 -3 -12 -4 -19
-1 -8 3 -5 6 6 6 11 1 17 -2 13 -5z m-114 -21 c-7 -2 -19 -2 -25 0 -7 3 -2 5
12 5 14 0 19 -2 13 -5z m21 -33 c4 -5 5 -13 2 -19 -10 -16 -36 -13 -36 4 0 8
-4 15 -10 15 -5 0 -10 5 -10 11 0 11 38 3 54 -11z m206 -71 c0 -5 -9 -9 -20
-9 -11 0 -20 6 -20 14 0 9 7 12 20 9 11 -3 20 -9 20 -14z m-33 -145 c-3 -3
-12 -4 -19 -1 -8 3 -5 6 6 6 11 1 17 -2 13 -5z m-605 -191 c3 -37 5 -48 11
-63 12 -33 15 -60 6 -60 -9 0 -13 14 -10 39 2 7 -2 10 -8 6 -7 -3 -11 3 -11
15 0 12 -5 30 -10 41 -11 20 -6 39 11 39 5 0 10 -8 11 -17z m423 -173 c3 -5 1
-10 -4 -10 -6 0 -11 5 -11 10 0 6 2 10 4 10 3 0 8 -4 11 -10z m65 -10 c0 -5
-4 -10 -10 -10 -5 0 -10 5 -10 10 0 6 5 10 10 10 6 0 10 -4 10 -10z m-442 -78
c2 -12 12 -28 22 -35 13 -9 17 -22 15 -47 -2 -19 -4 -41 -4 -48 -1 -8 -10 -12
-23 -10 -19 2 -24 11 -29 47 -3 25 -11 47 -17 49 -16 5 -15 59 1 65 20 9 32 2
35 -21z m632 -82 c0 -5 -5 -10 -11 -10 -5 0 -7 5 -4 10 3 6 8 10 11 10 2 0 4
-4 4 -10z m-334 -227 c-7 -7 -26 7 -26 19 0 6 6 6 15 -2 9 -7 13 -15 11 -17z
m-59 -280 c-3 -10 -5 -4 -5 12 0 17 2 24 5 18 2 -7 2 -21 0 -30z m8 -93 c3 -5
1 -10 -4 -10 -6 0 -11 5 -11 10 0 6 2 10 4 10 3 0 8 -4 11 -10z"/>
<path d="M1146 15 c-6 -16 3 -19 28 -9 22 8 20 24 -3 24 -10 0 -21 -7 -25 -15z"/>
</g>
</svg>
